<?xml version="1.0" encoding="UTF-8"?><svg xmlns="http://www.w3.org/2000/svg" viewBox="0 0 73.56 73.56"><defs><style>.d{fill:none;stroke:#231f20;stroke-miterlimit:10;stroke-width:4px;}</style></defs><g id="a"/><g id="b"><g id="c"><g><circle class="d" cx="36.78" cy="36.78" r="34.78"/><path class="d" d="M3.17,27.8l1.8,1.96s3.54-4.77,7.54-5.54c0,0,3.08,.92,4.15,3.54l7.85,.92s2.62-1.69,6.92-1.69l10.93,9.79-3.08,13.76s.77,3.23,3.69,5.23l.77,6.62s-2,3.39-1.69,4.46c0,0,2.18,2.22,7.55,2.26"/><polyline class="d" points="42.37 36.78 55.6 32.84 56.99 26.07 60.99 21.45 64.22 20.22 65.5 17.16"/><path class="d" d="M56.99,26.07S32.61,5.09,8.63,16.35"/><path class="d" d="M60.99,21.45S49.1-2.25,18.96,6.91"/><path class="d" d="M24.51,28.69s-1.88,37.74,8.29,42.65"/><path class="d" d="M16.67,27.76s-11.7,19.47,.84,37.97"/><path class="d" d="M4.97,29.76s-2.46,7.48-1.08,18.36"/><path class="d" d="M42.98,55.77s26.01-8.93,27.39-28.01"/><path class="d" d="M43.75,62.39s19.38,.55,27.08-18.5"/></g></g></g></svg>